<svg width="960" height="960" viewBox="0 0 960 960" fill="none" xmlns="http://www.w3.org/2000/svg">
<g clip-path="url(#clip0_510_1398)">
<path fill-rule="evenodd" clip-rule="evenodd" d="M553.672 494.549L631.5 498.458L632.36 482.901L634.579 442.88C634.775 439.328 633.552 435.844 631.181 433.193C628.809 430.542 625.481 428.941 621.93 428.742L570.908 425.917C567.356 425.721 563.872 426.943 561.221 429.315C558.57 431.687 556.97 435.014 556.771 438.566L553.996 488.706L553.672 494.549ZM605.81 432.369L605.869 433.868C605.81 432.369 605.81 432.369 605.811 432.369L605.812 432.369L605.816 432.369L605.828 432.368L605.871 432.367C605.908 432.366 605.962 432.364 606.03 432.362C606.168 432.359 606.368 432.355 606.621 432.352C607.128 432.347 607.852 432.348 608.727 432.372C610.474 432.421 612.846 432.564 615.324 432.942C617.789 433.318 620.433 433.938 622.685 434.975C624.917 436.003 626.97 437.54 627.901 439.863L627.901 439.863C629.752 444.48 630.05 448.134 629.731 453.147C629.602 455.186 629.369 457.476 629.097 460.144L629.096 460.159C629.039 460.717 628.98 461.292 628.921 461.884C628.574 465.331 628.185 469.425 627.859 474.472C627.806 475.298 627.092 475.925 626.265 475.872C625.439 475.818 624.812 475.105 624.865 474.278C625.194 469.181 625.587 465.046 625.936 461.584C625.997 460.977 626.056 460.393 626.114 459.828L626.115 459.82C626.386 457.152 626.612 454.934 626.737 452.957C627.037 448.241 626.753 445.062 625.117 440.979C624.594 439.676 623.339 438.58 621.429 437.7C619.538 436.828 617.203 436.263 614.872 435.907C612.554 435.554 610.312 435.418 608.643 435.371C607.811 435.348 607.126 435.347 606.652 435.352C606.415 435.354 606.231 435.358 606.108 435.361C606.046 435.363 605.999 435.364 605.969 435.365L605.936 435.366L605.929 435.367L605.928 435.367L605.928 435.367C605.1 435.399 604.403 434.755 604.37 433.927C604.338 433.099 604.982 432.402 605.81 432.369ZM605.928 435.367C605.928 435.367 605.928 435.367 605.928 435.367Z" fill="#171717"/>
<path d="M721.672 343.936C721.672 343.936 849.271 334.021 848.211 360.2C847.424 372.355 845.882 384.45 843.594 396.415C778.922 369.456 713.145 386.288 713.145 386.288C718.624 362.924 721.672 343.936 721.672 343.936Z" fill="url(#paint0_linear_510_1398)"/>
<path d="M563.666 556.538C560.115 556.337 556.789 554.736 554.418 552.086C552.047 549.435 550.824 545.952 551.018 542.401L553.671 494.549L631.499 498.458L628.825 546.715C628.625 550.266 627.024 553.592 624.373 555.964C621.723 558.335 618.239 559.558 614.688 559.364L563.666 556.538Z" fill="#171717"/>
<path d="M713.145 386.288C713.145 386.288 778.922 369.456 843.594 396.415C834.773 445.188 811.663 524.809 759.568 563.495C721.1 592.064 621.594 594.95 621.594 594.95L616.6 684.829L582.137 684.929L587.97 579.636C603.981 580.436 618.321 581.043 618.321 581.043C618.321 581.043 637.239 575.643 640.206 560.779C642.353 550.044 646.04 504.765 647.933 480.358C663.55 477.229 674.913 473.016 680.933 467.344C694.855 454.232 706.046 416.578 713.145 386.288Z" fill="url(#paint1_linear_510_1398)"/>
<path d="M530.299 554.683L533.925 489.21C539.687 489.11 546.361 488.937 553.673 488.684L553.997 488.704L553.673 494.547L551.017 542.399C550.823 545.951 552.045 549.434 554.417 552.084C556.788 554.735 560.114 556.336 563.665 556.536L614.687 559.362C618.238 559.557 621.721 558.334 624.372 555.962C627.022 553.591 628.624 550.264 628.824 546.713L631.498 498.456L632.359 482.901L632.632 482.911C638.101 482.151 643.215 481.301 647.932 480.359C646.039 504.766 642.352 550.045 640.205 560.78C637.238 575.646 618.32 581.044 618.32 581.044C618.32 581.044 603.98 580.437 587.969 579.637C573.041 578.887 556.645 577.966 549.09 577.206C533.425 575.616 530.299 554.683 530.299 554.683Z" fill="url(#paint2_linear_510_1398)"/>
<path d="M658.77 805.606C658.77 821.263 618.18 833.963 568.1 833.963C518.02 833.963 477.441 821.263 477.441 805.606C477.441 789.949 518.031 777.24 568.1 777.24C571.108 777.24 574.085 777.29 577.012 777.371C622.909 778.779 658.77 790.881 658.77 805.606Z" fill="#171717"/>
<path d="M451.6 392.708C443.357 397.873 448.6 416.234 448.6 416.234L448.611 416.994C427.566 417.247 435.081 379.394 442.048 387.402C444.542 390.199 447.908 392.069 451.6 392.708V392.708Z" fill="#171717"/>
<path d="M553.8 685.022L552.817 685.295C552.24 683.195 550.103 681.447 546.872 679.989C533.472 673.922 501.209 672.869 483.283 672.778C507.072 672.343 556.372 670.145 555.825 659.288C555.106 644.988 470.756 650.711 470.756 650.711C470.756 650.711 498.636 627.111 488.631 618.536C478.626 609.961 446.673 639.636 446.673 639.636L446.173 639.697C444.897 628.397 441.201 620.097 435.013 617.832C427.113 614.932 403.313 614.561 375.677 614.318V614.531C377.105 697.731 357.104 745.331 357.104 745.331V745.341C296.786 747.964 206.825 732.601 164.048 682.785C149.211 665.508 140.048 644.085 139.773 617.828C138.345 482.721 404.266 483.428 404.266 483.428H404.985V468.42C404.985 468.42 401.411 459.842 413.918 459.488C426.425 459.134 497.559 457.695 497.559 457.695C497.559 457.695 509.359 454.475 509.359 469.848V489.393H511.506C511.506 489.393 520.134 489.464 533.918 489.211L530.3 554.684C530.3 554.684 533.429 575.617 549.1 577.207C556.655 577.967 573.051 578.888 587.979 579.638L582.146 684.931L553.8 685.022Z" fill="url(#paint3_linear_510_1398)"/>
<path d="M446.636 646.416C447.304 669.597 439.496 701.397 423.768 721.793C420.613 725.949 416.945 729.689 412.851 732.923C404.251 739.587 383.523 744.184 357.111 745.339V745.329C357.111 745.329 377.111 697.72 375.684 614.529V614.316C403.321 614.559 427.121 614.934 435.02 617.83C441.208 620.099 444.904 628.393 446.18 639.695C446.413 641.828 446.565 644.076 446.636 646.416Z" fill="url(#paint4_linear_510_1398)"/>
<path d="M493.96 249.651C494.618 248.719 518.933 214.438 539.745 225.365C560.83 236.445 500.066 277.551 522.225 263.252C544.384 248.953 572.274 246.815 574.775 254.319C577.276 261.823 571.199 267.546 561.899 274.685C552.599 281.824 439.653 291.851 421.789 305.432C412.796 312.268 411.763 349.981 412.958 385.751L409.99 385.851C409.99 385.851 402.49 410.511 393.19 398.004C384.45 386.236 396.269 368.463 397.69 366.397C395.847 368.807 377.49 392.363 371.035 380.497C364.235 367.98 391.046 348.323 391.046 348.323C391.046 348.323 386.762 306.507 392.484 283.984C398.206 261.461 443.951 259.324 443.951 259.324C443.951 259.324 441.095 223.575 456.944 218.937C472.793 214.299 472.186 246.1 472.186 246.1C472.186 246.1 490.78 201.064 501.859 205.712C512.806 210.3 494.405 248.729 493.96 249.651Z" fill="#171717"/>
<path d="M404.272 483.428C404.272 483.428 138.351 482.72 139.779 617.828C140.052 644.088 149.217 665.508 164.054 682.785C206.831 732.601 296.792 747.964 357.11 745.341C383.522 744.186 404.252 739.589 412.85 732.925C416.944 729.69 420.612 725.95 423.767 721.795C439.495 701.395 447.303 669.595 446.635 646.418C446.564 644.078 446.412 641.83 446.179 639.693C444.903 628.393 441.207 620.093 435.019 617.828C427.119 614.928 403.319 614.557 375.683 614.314C328.283 613.889 269.62 613.838 260.583 602.101C246.283 583.517 263.439 567.071 263.439 567.071" stroke="#171717" stroke-width="3" stroke-linecap="round" stroke-linejoin="round"/>
<path d="M468.946 696.191C490.73 697.67 552.466 703.169 550.106 717.904C547.25 735.779 423.768 721.793 423.768 721.793" stroke="#171717" stroke-width="3" stroke-linecap="round" stroke-linejoin="round"/>
<path d="M461.461 695.746C461.461 695.746 461.593 695.756 461.861 695.766C461.888 695.765 461.916 695.768 461.942 695.776C462.874 695.817 465.152 695.938 468.403 696.161" stroke="#171717" stroke-width="3" stroke-linecap="round" stroke-linejoin="round"/>
<path d="M468.398 696.162C465.147 695.99 462.869 695.838 461.938 695.777" stroke="#171717" stroke-width="3" stroke-linecap="round" stroke-linejoin="round"/>
<path d="M468.398 696.163C468.439 696.161 468.48 696.164 468.52 696.173C468.662 696.173 468.803 696.183 468.945 696.193" stroke="#171717" stroke-width="3" stroke-linecap="round" stroke-linejoin="round"/>
<path d="M483.285 672.777C501.211 672.868 533.476 673.921 546.874 679.988C550.105 681.446 552.242 683.198 552.819 685.294C552.921 685.671 552.972 686.059 552.971 686.449C552.971 699.412 490.8 697.326 468.945 696.191" stroke="#171717" stroke-width="3" stroke-linecap="round" stroke-linejoin="round"/>
<path d="M483.174 672.777C475.69 672.909 470.758 672.868 470.758 672.868C470.758 672.868 475.71 672.737 483.174 672.777Z" stroke="#171717" stroke-width="3" stroke-linecap="round" stroke-linejoin="round"/>
<path d="M483.174 672.777H483.285" stroke="#171717" stroke-width="3" stroke-linecap="round" stroke-linejoin="round"/>
<path d="M446.676 639.631C446.676 639.631 478.628 609.959 488.634 618.531C498.64 627.103 470.759 650.706 470.759 650.706C470.759 650.706 555.109 644.984 555.828 659.283C556.375 670.14 507.075 672.338 483.286 672.773" stroke="#171717" stroke-width="3" stroke-linecap="round" stroke-linejoin="round"/>
<path d="M553.67 488.686C546.358 488.939 539.684 489.111 533.922 489.212C520.138 489.465 511.51 489.394 511.51 489.394" stroke="#171717" stroke-width="3" stroke-linecap="round" stroke-linejoin="round"/>
<path d="M616.592 685.022L616.602 684.829L621.594 594.95C621.594 594.95 721.094 592.064 759.568 563.495C811.668 524.809 834.773 445.188 843.594 396.415C845.882 384.45 847.424 372.355 848.212 360.2C849.276 334.021 721.672 343.936 721.672 343.936C721.672 343.936 718.624 362.924 713.145 386.288C706.045 416.578 694.855 454.232 680.93 467.346C674.915 473.018 663.552 477.231 647.93 480.36C643.211 481.302 638.097 482.152 632.63 482.912" stroke="#171717" stroke-width="3" stroke-linecap="round" stroke-linejoin="round"/>
<path d="M404.992 489.505V468.42C404.992 468.42 401.418 459.842 413.925 459.488C426.432 459.134 497.566 457.695 497.566 457.695C497.566 457.695 509.366 454.475 509.366 469.848V493.434" stroke="#171717" stroke-width="3" stroke-linecap="round" stroke-linejoin="round"/>
<path d="M397.691 366.4C396.273 368.466 384.454 386.239 393.191 398.007C402.491 410.514 409.991 385.854 409.991 385.854" stroke="#171717" stroke-width="3" stroke-linecap="round" stroke-linejoin="round"/>
<path d="M493.949 249.671C493.95 249.663 493.954 249.656 493.96 249.651C494.405 248.729 512.806 210.296 501.86 205.708C490.781 201.06 472.187 246.096 472.187 246.096C472.187 246.096 472.787 214.286 456.945 218.935C441.103 223.584 443.952 259.322 443.952 259.322C443.952 259.322 398.197 261.469 392.485 283.982C386.773 306.495 391.047 348.321 391.047 348.321C391.047 348.321 364.239 367.978 371.035 380.5C377.486 392.369 395.847 368.813 397.69 366.4C397.713 366.385 397.73 366.363 397.74 366.339C397.749 366.32 397.759 366.303 397.771 366.288C397.821 366.228 397.842 366.197 397.842 366.197" stroke="#171717" stroke-width="3" stroke-linecap="round" stroke-linejoin="round"/>
<path d="M417.499 454.474C417.499 454.474 414.147 421.054 412.962 385.75C411.762 349.98 412.8 312.267 421.793 305.431C439.657 291.85 552.607 281.831 561.903 274.684C571.199 267.537 577.277 261.823 574.775 254.318C572.273 246.813 544.393 248.951 522.225 263.251C500.057 277.551 560.83 236.444 539.745 225.364C518.933 214.437 494.618 248.718 493.96 249.65" stroke="#171717" stroke-width="3" stroke-linecap="round" stroke-linejoin="round"/>
<path d="M464.084 376.555C464.084 376.555 475.66 379.897 477.442 377.75C479.224 375.603 472.631 313.766 472.631 313.766L499.945 311.984" stroke="#171717" stroke-width="3" stroke-linecap="round" stroke-linejoin="round"/>
<path d="M492.562 330.922L493.515 343.915" stroke="#171717" stroke-width="3" stroke-linecap="round" stroke-linejoin="round"/>
<path d="M446.697 328.664V342.842" stroke="#171717" stroke-width="3" stroke-linecap="round" stroke-linejoin="round"/>
<path d="M451.6 392.708C447.909 392.069 444.543 390.199 442.05 387.402C435.083 379.391 427.568 417.247 448.613 416.994C452.451 416.807 456.213 415.86 459.682 414.209" stroke="#171717" stroke-width="3" stroke-linecap="round" stroke-linejoin="round"/>
<path d="M464.682 392.051C460.426 393.232 455.961 393.457 451.607 392.709" stroke="#171717" stroke-width="3" stroke-linecap="round" stroke-linejoin="round"/>
<path d="M448.599 416.233C448.599 416.233 443.354 397.872 451.599 392.707H451.609" stroke="#171717" stroke-width="3" stroke-linecap="round" stroke-linejoin="round"/>
<path d="M475.053 454.476C475.053 454.476 467.903 435.771 479.104 427.193C490.305 418.615 502.447 428.145 507.217 414.564C511.987 400.983 517.942 287.801 517.942 287.801" stroke="#171717" stroke-width="3" stroke-linecap="round" stroke-linejoin="round"/>
<path d="M805.5 324.016C805.501 323.999 805.504 323.982 805.51 323.966V323.935C805.51 323.925 805.52 323.915 805.52 323.895C806.02 320.502 816.893 246.877 829.987 249.49C843.387 252.173 821.764 342.09 821.764 342.09" stroke="#171717" stroke-width="3" stroke-linecap="round" stroke-linejoin="round"/>
<path d="M785.555 318.325C785.96 301.453 788.279 238.086 800.675 239.484C814.651 241.054 805.901 320.36 805.516 323.895" stroke="#171717" stroke-width="3" stroke-linecap="round" stroke-linejoin="round"/>
<path d="M785.535 319.631C785.535 319.297 785.545 318.931 785.555 318.547" stroke="#171717" stroke-width="3" stroke-linecap="round" stroke-linejoin="round"/>
<path d="M785.494 321.849C785.494 321.444 785.504 320.826 785.525 320.016" stroke="#171717" stroke-width="3" stroke-linecap="round" stroke-linejoin="round"/>
<path d="M785.525 320.016C785.514 320.826 785.504 321.444 785.494 321.849C785.494 322.214 785.484 322.406 785.484 322.406" stroke="#171717" stroke-width="3" stroke-linecap="round" stroke-linejoin="round"/>
<path d="M785.523 320.016C785.533 319.894 785.533 319.763 785.533 319.631" stroke="#171717" stroke-width="3" stroke-linecap="round" stroke-linejoin="round"/>
<path d="M785.555 318.547C785.555 318.932 785.545 319.297 785.535 319.631" stroke="#171717" stroke-width="3" stroke-linecap="round" stroke-linejoin="round"/>
<path d="M785.555 318.546V318.324" stroke="#171717" stroke-width="3" stroke-linecap="round" stroke-linejoin="round"/>
<path d="M753.846 342.093C753.846 342.093 722.391 314.365 732.225 306.506C742.059 298.647 767.255 321.515 767.255 321.515C767.255 321.515 753.846 237.165 770.82 236.446C785.575 235.818 785.757 301.169 785.555 318.325" stroke="#171717" stroke-width="3" stroke-linecap="round" stroke-linejoin="round"/>
<path d="M39.6914 685.021L164.054 682.783" stroke="#171717" stroke-width="3" stroke-linecap="round" stroke-linejoin="round"/>
<path d="M553.803 685.022L582.139 684.931L616.602 684.829L919.691 683.908" stroke="#171717" stroke-width="3" stroke-linecap="round" stroke-linejoin="round"/>
<path d="M357.111 745.329C357.111 745.329 377.111 697.72 375.684 614.529" stroke="#171717" stroke-width="3" stroke-linecap="round" stroke-linejoin="round"/>
<path d="M713.145 386.288C713.145 386.288 778.922 369.456 843.594 396.415" stroke="#171717" stroke-width="3" stroke-linecap="round" stroke-linejoin="round"/>
<path d="M658.77 805.606C658.77 821.263 618.18 833.963 568.1 833.963C518.02 833.963 477.441 821.263 477.441 805.606C477.441 789.949 518.031 777.24 568.1 777.24C571.108 777.24 574.085 777.29 577.012 777.371C622.909 778.779 658.77 790.881 658.77 805.606Z" stroke="#171717" stroke-width="3" stroke-linecap="round" stroke-linejoin="round"/>
<path d="M631.5 498.458L628.826 546.715C628.626 550.266 627.025 553.592 624.374 555.964C621.724 558.335 618.24 559.558 614.689 559.364L563.667 556.538C560.116 556.338 556.79 554.736 554.418 552.086C552.047 549.435 550.824 545.952 551.018 542.401L553.671 494.549L553.995 488.706L556.77 438.566C556.969 435.014 558.569 431.687 561.22 429.315C563.871 426.943 567.355 425.721 570.907 425.917L621.929 428.742C625.481 428.941 628.808 430.542 631.18 433.193C633.552 435.844 634.774 439.328 634.578 442.88L632.36 482.901L631.5 498.458Z" stroke="#171717" stroke-width="3" stroke-linecap="round" stroke-linejoin="round"/>
<path d="M535.431 461.9L533.922 489.213L530.299 554.684C530.299 554.684 533.428 575.617 549.099 577.207C556.654 577.967 573.05 578.888 587.978 579.638C603.989 580.438 618.329 581.045 618.329 581.045C618.329 581.045 637.247 575.645 640.214 560.781C642.361 550.046 646.048 504.767 647.941 480.36C648.671 470.931 649.126 464.612 649.126 464.612" stroke="#171717" stroke-width="3" stroke-linecap="round" stroke-linejoin="round"/>
<path d="M575.91 797.304L577.014 777.373L582.139 684.932L587.972 579.639" stroke="#171717" stroke-width="3" stroke-linecap="round" stroke-linejoin="round"/>
<path d="M553.67 494.549L631.498 498.458" stroke="#171717" stroke-width="3" stroke-linecap="round" stroke-linejoin="round"/>
<path d="M113.799 646.314C108.902 624.407 111.994 601.472 122.517 581.645" stroke="#171717" stroke-width="3" stroke-linecap="round" stroke-linejoin="round"/>
<path d="M622.986 412.636L634.417 394.045" stroke="#171717" stroke-width="3" stroke-linecap="round" stroke-linejoin="round"/>
<path d="M592.859 408.367L593.505 349.748" stroke="#171717" stroke-width="3" stroke-linecap="round" stroke-linejoin="round"/>
<path d="M569.222 411.368L558.611 396.988" stroke="#171717" stroke-width="3" stroke-linecap="round" stroke-linejoin="round"/>
<path d="M856.986 299.458C861.052 290.982 863.203 281.715 863.285 272.314C863.367 262.914 861.379 253.61 857.462 245.064" stroke="#171717" stroke-width="3" stroke-linecap="round" stroke-linejoin="round"/>
<path d="M208.631 438.939L194.918 420.449" stroke="#171717" stroke-width="3" stroke-linecap="round" stroke-linejoin="round"/>
<path d="M194.117 436.974L208.492 421.318" stroke="#171717" stroke-width="3" stroke-linecap="round" stroke-linejoin="round"/>
<path d="M257.479 309.126L249.031 291.9" stroke="#171717" stroke-width="3" stroke-linecap="round" stroke-linejoin="round"/>
<path d="M243.951 306.607L260.473 293.842" stroke="#171717" stroke-width="3" stroke-linecap="round" stroke-linejoin="round"/>
<path d="M701.66 258.962L693.082 244.662" stroke="#171717" stroke-width="3" stroke-linecap="round" stroke-linejoin="round"/>
<path d="M688.818 258.988L703.957 244.105" stroke="#171717" stroke-width="3" stroke-linecap="round" stroke-linejoin="round"/>
<path d="M725.93 146.749L715.186 127.459" stroke="#171717" stroke-width="3" stroke-linecap="round" stroke-linejoin="round"/>
<path d="M713 143.076L725.218 128.117" stroke="#171717" stroke-width="3" stroke-linecap="round" stroke-linejoin="round"/>
<path d="M750.514 589.328C781.777 575.999 806.561 550.934 819.536 519.521" stroke="#171717" stroke-width="3" stroke-linecap="round" stroke-linejoin="round"/>
<path d="M191.171 281.943C177.177 296.867 176.941 321.269 186.84 339.173C196.74 357.077 214.854 369.155 233.894 376.639C247.603 382.028 262.655 385.731 273.267 395.946C290.012 412.064 289.708 440.727 276.794 460.046C263.88 479.365 241.267 490.319 218.487 494.924C194.4 499.792 168.03 498.132 147.219 485.065C126.408 471.998 112.92 445.878 119.304 422.148C121.028 415.738 124.212 409.548 129.304 405.292C134.396 401.036 141.597 399.005 147.904 401.073C159.531 404.886 163.135 419.925 161.204 432.007C160.611 435.713 159.613 439.501 157.219 442.391C154.825 445.281 150.724 447.036 147.206 445.729C143.688 444.422 141.816 439.42 144.297 436.605" stroke="#171717" stroke-width="3" stroke-linecap="round" stroke-linejoin="round"/>
<path d="M644.071 264.517C634.507 244.633 645.371 219.361 663.739 207.132C682.107 194.903 705.659 193.332 727.57 195.932C749.481 198.532 770.844 204.864 792.804 207.008C809.323 208.62 826.561 207.715 841.582 200.653C856.603 193.591 869.021 179.475 870.65 162.953C871.618 153.14 868.485 142.699 861.242 136.007C853.999 129.315 842.5 127.128 833.853 131.868C825.206 136.608 820.937 148.568 825.683 157.214C830.429 165.86 844.069 168.254 850.746 161" stroke="#171717" stroke-width="3" stroke-linecap="round" stroke-linejoin="round"/>
<path d="M497.063 486.286L496.893 471.037" stroke="#171717" stroke-width="3" stroke-linecap="round" stroke-linejoin="round"/>
<path d="M472.146 486.3L472.513 472" stroke="#171717" stroke-width="3" stroke-linecap="round" stroke-linejoin="round"/>
<path d="M443.857 486.291L443.869 472.471" stroke="#171717" stroke-width="3" stroke-linecap="round" stroke-linejoin="round"/>
<path d="M419.323 486.286L419.195 474.373" stroke="#171717" stroke-width="3" stroke-linecap="round" stroke-linejoin="round"/>
<path d="M819.536 408.367L805.555 416.232" stroke="#171717" stroke-width="3" stroke-linecap="round" stroke-linejoin="round"/>
<path d="M791.733 454.836C790.371 450.847 788.178 447.192 785.299 444.113" stroke="#171717" stroke-width="3" stroke-linecap="round" stroke-linejoin="round"/>
<path d="M748.127 425.526L758.136 416.947" stroke="#171717" stroke-width="3" stroke-linecap="round" stroke-linejoin="round"/>
<path d="M725.967 461.27L719.533 450.547" stroke="#171717" stroke-width="3" stroke-linecap="round" stroke-linejoin="round"/>
<path d="M733.936 497.206L745.446 490.906" stroke="#171717" stroke-width="3" stroke-linecap="round" stroke-linejoin="round"/>
<path d="M749.556 544.194L746.699 533.471" stroke="#171717" stroke-width="3" stroke-linecap="round" stroke-linejoin="round"/>
<path d="M688.541 550.327L699.408 541.205" stroke="#171717" stroke-width="3" stroke-linecap="round" stroke-linejoin="round"/>
<path d="M671.637 509.166L665.918 502.732" stroke="#171717" stroke-width="3" stroke-linecap="round" stroke-linejoin="round"/>
<path d="M655.91 576.364L658.054 564.926" stroke="#171717" stroke-width="3" stroke-linecap="round" stroke-linejoin="round"/>
<path d="M596.488 620.608L607.173 608.422" stroke="#171717" stroke-width="3" stroke-linecap="round" stroke-linejoin="round"/>
<path d="M605.869 652.854L601.58 647.135" stroke="#171717" stroke-width="3" stroke-linecap="round" stroke-linejoin="round"/>
<path d="M565.036 607.156L558.467 596.516" stroke="#171717" stroke-width="3" stroke-linecap="round" stroke-linejoin="round"/>
<path d="M521.574 630.757L533.012 620.035" stroke="#171717" stroke-width="3" stroke-linecap="round" stroke-linejoin="round"/>
<path d="M512.221 584.942L507.221 576.363" stroke="#171717" stroke-width="3" stroke-linecap="round" stroke-linejoin="round"/>
<path d="M485.748 540.59L494.439 533.947" stroke="#171717" stroke-width="3" stroke-linecap="round" stroke-linejoin="round"/>
<path d="M451.513 571.327L446.867 563.463" stroke="#171717" stroke-width="3" stroke-linecap="round" stroke-linejoin="round"/>
<path d="M403.561 593.163L409.475 587.191C409.63 587.002 409.348 586.674 409.139 586.799C408.93 586.924 409.084 587.328 409.323 587.281" stroke="#171717" stroke-width="3" stroke-linecap="round" stroke-linejoin="round"/>
<path d="M414.654 541.345L420.382 534.561" stroke="#171717" stroke-width="3" stroke-linecap="round" stroke-linejoin="round"/>
<path d="M368.573 571.323L362.488 564.896" stroke="#171717" stroke-width="3" stroke-linecap="round" stroke-linejoin="round"/>
<path d="M318.916 597.872L325.044 591.488" stroke="#171717" stroke-width="3" stroke-linecap="round" stroke-linejoin="round"/>
<path d="M324.66 541.072L332.842 533.172" stroke="#171717" stroke-width="3" stroke-linecap="round" stroke-linejoin="round"/>
<path d="M363.185 511.656L356.385 504.156" stroke="#171717" stroke-width="3" stroke-linecap="round" stroke-linejoin="round"/>
<path d="M260.2 543.158L251.27 535.645" stroke="#171717" stroke-width="3" stroke-linecap="round" stroke-linejoin="round"/>
<path d="M200.207 581.388C202.673 578.283 204.511 574.728 205.617 570.92" stroke="#171717" stroke-width="3" stroke-linecap="round" stroke-linejoin="round"/>
<path d="M182.982 633.966L175.318 628.096" stroke="#171717" stroke-width="3" stroke-linecap="round" stroke-linejoin="round"/>
<path d="M238.092 628.913C239.657 624.471 241.804 620.255 244.475 616.375" stroke="#171717" stroke-width="3" stroke-linecap="round" stroke-linejoin="round"/>
<path d="M220.555 687.524L211.619 679.66" stroke="#171717" stroke-width="3" stroke-linecap="round" stroke-linejoin="round"/>
<path d="M297.985 653.039C295.165 650.989 292.687 648.506 290.645 645.682" stroke="#171717" stroke-width="3" stroke-linecap="round" stroke-linejoin="round"/>
<path d="M275.637 715.438L285.977 703.977" stroke="#171717" stroke-width="3" stroke-linecap="round" stroke-linejoin="round"/>
<path d="M343.816 675.329C346.396 672.221 348.756 668.936 350.879 665.5" stroke="#171717" stroke-width="3" stroke-linecap="round" stroke-linejoin="round"/>
<path d="M339.923 723.306C338.59 722.755 337.391 721.923 336.407 720.868C335.424 719.813 334.679 718.558 334.223 717.189" stroke="#171717" stroke-width="3" stroke-linecap="round" stroke-linejoin="round"/>
<path d="M120.843 384.234L115.574 374.24" stroke="#171717" stroke-width="3" stroke-linecap="round" stroke-linejoin="round"/>
<path d="M112.182 382.927L123.857 372.713" stroke="#171717" stroke-width="3" stroke-linecap="round" stroke-linejoin="round"/>
<path d="M634.114 212.665L630.158 205.596" stroke="#171717" stroke-width="3" stroke-linecap="round" stroke-linejoin="round"/>
<path d="M627.332 211.355C630.422 210.287 633.193 208.459 635.393 206.041" stroke="#171717" stroke-width="3" stroke-linecap="round" stroke-linejoin="round"/>
<path d="M392.364 246.094L383.309 235.609" stroke="#171717" stroke-width="3" stroke-linecap="round" stroke-linejoin="round"/>
<path d="M382.377 246.116L393.537 233.906" stroke="#171717" stroke-width="3" stroke-linecap="round" stroke-linejoin="round"/>
<path d="M653.07 344.884L641.827 347.656C641.488 347.741 641.131 347.719 640.805 347.594C640.478 347.468 640.198 347.246 640.001 346.957C639.805 346.667 639.703 346.325 639.707 345.975C639.712 345.625 639.824 345.286 640.027 345.001L646.767 335.585C646.965 335.31 647.076 334.983 647.087 334.645C647.098 334.307 647.008 333.973 646.829 333.685L640.718 323.849C640.534 323.553 640.445 323.206 640.464 322.858C640.482 322.509 640.607 322.174 640.822 321.898C641.036 321.622 641.33 321.419 641.663 321.315C641.997 321.211 642.354 321.212 642.687 321.317L653.725 324.817C654.048 324.92 654.393 324.924 654.717 324.83C655.042 324.737 655.332 324.549 655.549 324.29L663.015 315.439C663.241 315.172 663.543 314.981 663.88 314.89C664.218 314.8 664.575 314.815 664.904 314.934C665.232 315.053 665.517 315.269 665.718 315.554C665.92 315.84 666.03 316.18 666.032 316.529L666.114 328.108C666.117 328.446 666.219 328.776 666.408 329.056C666.598 329.336 666.866 329.553 667.179 329.68L677.905 334.046C678.228 334.178 678.504 334.405 678.695 334.698C678.885 334.991 678.982 335.335 678.971 335.684C678.96 336.033 678.842 336.371 678.634 336.651C678.425 336.932 678.136 337.141 677.804 337.252L666.817 340.908C666.497 341.015 666.214 341.214 666.007 341.481C665.799 341.749 665.676 342.071 665.651 342.408L664.814 353.957C664.789 354.306 664.657 354.639 664.437 354.91C664.217 355.182 663.919 355.38 663.584 355.477C663.248 355.574 662.89 355.566 662.559 355.454C662.228 355.341 661.94 355.13 661.732 354.848L654.861 345.529C654.659 345.257 654.382 345.05 654.063 344.935C653.745 344.821 653.399 344.803 653.07 344.884V344.884Z" fill="#171717"/>
<path d="M517.02 167.063L509.61 168.89C509.387 168.945 509.152 168.93 508.936 168.848C508.721 168.765 508.537 168.619 508.407 168.428C508.278 168.238 508.21 168.012 508.213 167.781C508.216 167.551 508.289 167.327 508.423 167.14L512.866 160.934C512.996 160.752 513.069 160.537 513.076 160.314C513.084 160.092 513.025 159.872 512.907 159.683L508.879 153.201C508.758 153.005 508.699 152.776 508.711 152.546C508.723 152.316 508.805 152.095 508.947 151.913C509.089 151.731 509.283 151.597 509.503 151.528C509.724 151.46 509.96 151.461 510.179 151.532L517.454 153.839C517.667 153.905 517.894 153.908 518.107 153.846C518.321 153.784 518.511 153.661 518.654 153.491L523.575 147.658C523.724 147.482 523.923 147.356 524.145 147.296C524.368 147.237 524.603 147.247 524.82 147.325C525.036 147.403 525.224 147.546 525.357 147.734C525.49 147.922 525.562 148.146 525.563 148.377L525.617 156.008C525.619 156.23 525.686 156.447 525.81 156.632C525.935 156.816 526.111 156.959 526.317 157.044L533.386 159.921C533.6 160.008 533.781 160.158 533.906 160.351C534.032 160.545 534.095 160.771 534.087 161.002C534.08 161.232 534.002 161.454 533.864 161.639C533.727 161.824 533.536 161.962 533.317 162.035L526.075 164.444C525.864 164.514 525.679 164.646 525.542 164.821C525.405 164.997 525.324 165.21 525.307 165.432L524.755 173.044C524.739 173.273 524.652 173.492 524.507 173.671C524.362 173.85 524.166 173.98 523.944 174.044C523.723 174.108 523.488 174.103 523.269 174.029C523.051 173.955 522.861 173.816 522.724 173.631L518.194 167.488C518.063 167.309 517.881 167.173 517.672 167.098C517.463 167.022 517.236 167.01 517.02 167.063V167.063Z" fill="#171717"/>
<path d="M315.175 339.361L309.288 345.754C309.11 345.947 308.878 346.08 308.621 346.137C308.365 346.194 308.098 346.171 307.856 346.071C307.613 345.971 307.407 345.8 307.265 345.579C307.123 345.359 307.052 345.1 307.062 344.838L307.378 336.154C307.387 335.9 307.321 335.65 307.188 335.434C307.055 335.218 306.861 335.046 306.631 334.941L298.731 331.318C298.493 331.208 298.294 331.028 298.161 330.802C298.029 330.576 297.968 330.315 297.988 330.054C298.008 329.793 298.107 329.544 298.273 329.341C298.438 329.138 298.662 328.99 298.914 328.918L307.271 326.536C307.515 326.466 307.732 326.326 307.897 326.132C308.061 325.939 308.164 325.702 308.194 325.45L309.194 316.818C309.224 316.557 309.334 316.312 309.507 316.116C309.681 315.92 309.911 315.781 310.166 315.72C310.421 315.658 310.688 315.676 310.933 315.771C311.177 315.866 311.386 316.033 311.533 316.251L316.382 323.462C316.523 323.672 316.724 323.837 316.958 323.933C317.193 324.03 317.451 324.054 317.7 324.004L326.219 322.293C326.476 322.241 326.743 322.269 326.983 322.374C327.224 322.478 327.426 322.654 327.564 322.877C327.701 323.1 327.767 323.361 327.753 323.622C327.738 323.884 327.643 324.135 327.482 324.342L322.122 331.182C321.965 331.381 321.871 331.623 321.852 331.876C321.832 332.129 321.888 332.382 322.013 332.603L326.274 340.177C326.402 340.405 326.458 340.668 326.433 340.929C326.407 341.19 326.303 341.437 326.133 341.637C325.963 341.837 325.736 341.98 325.483 342.046C325.229 342.113 324.961 342.101 324.715 342.011L316.553 339.026C316.315 338.94 316.058 338.926 315.813 338.985C315.568 339.045 315.346 339.176 315.175 339.361V339.361Z" fill="#171717"/>
<g opacity="0.1">
<path d="M725.988 346.1C718.858 347.82 719.001 359.156 717.804 364.95C716.172 372.845 714.441 380.756 712.511 388.585C708.783 404.009 704.069 419.179 698.4 434C693.37 446.976 687.611 460.648 677.263 470.334C672.562 474.779 666.752 477.879 660.442 479.31C657.669 479.94 654.81 480.103 651.983 479.793C648.183 479.346 645.234 477.837 641.302 478.938C640.278 479.235 639.335 479.759 638.543 480.472C637.751 481.186 637.131 482.069 636.729 483.057C636.327 484.044 636.155 485.109 636.224 486.173C636.293 487.237 636.602 488.271 637.128 489.198C641.461 496.319 652.064 496.607 659.566 495.71C667.703 494.73 675.47 491.749 682.173 487.034C696.351 477.04 704.422 461.534 710.948 445.913C718.193 428.765 723.895 411.006 727.985 392.845C729.997 383.673 731.499 374.397 732.485 365.059C733.013 360.139 735.631 343.768 725.985 346.094L725.988 346.1Z" fill="#171717"/>
</g>
<g opacity="0.1">
<path d="M510.536 283.748C506.57 284.326 502.422 283.982 498.436 284.49C493.869 285.214 489.342 286.172 484.874 287.361C476.849 289.244 468.828 291.147 460.794 292.989C447.294 296.089 430.156 297.901 421.032 309.582C412.5 320.504 412.901 334.615 412.877 347.775C412.846 364.519 413.277 381.268 413.535 398.01C413.683 407.532 413.949 417.053 414.061 426.575C414.119 431.499 414.11 436.425 414.134 441.35C414.158 446.171 413.634 451.318 415.142 455.95C415.57 457.342 416.433 458.56 417.605 459.425C418.776 460.29 420.194 460.756 421.65 460.756C423.106 460.756 424.524 460.29 425.695 459.425C426.867 458.56 427.73 457.342 428.159 455.95C429.714 451.005 429.059 445.496 429.036 440.366C429.01 435.113 428.955 429.859 428.984 424.606C429.039 414.756 429.173 404.906 429.229 395.056C429.338 375.876 429.029 356.667 429.3 337.493C429.39 331.244 429.467 323.182 433.462 317.956C437.962 312.064 447.157 310.638 453.829 308.635C463.3 305.791 472.719 302.772 482.161 299.835C487.199 298.268 492.261 296.776 497.238 295.019C502.351 293.213 506.776 290.209 511.756 288.177C512.316 287.992 512.784 287.599 513.062 287.079C513.34 286.558 513.408 285.951 513.251 285.382C513.094 284.813 512.725 284.326 512.219 284.022C511.714 283.718 511.111 283.62 510.535 283.748H510.536Z" fill="#171717"/>
</g>
<g opacity="0.1">
<path d="M405.705 470.385C407.905 473.395 406.884 476.985 404.313 479.543C400.365 483.47 393.719 483.596 388.501 483.719C374.501 484.05 360.681 484.107 346.733 485.603C318.312 488.594 290.279 494.529 263.085 503.311C214.873 518.992 159.659 544.018 143.038 596.379C135.029 621.607 140.357 648.828 154.538 670.82C168.743 692.847 190.428 708.928 213.544 720.663C261 744.751 315.632 752.713 368.07 744.101C383.342 741.594 397.852 737.09 412.489 732.171C419.689 729.749 426.659 726.771 434.189 725.487C441.499 724.151 448.924 723.538 456.355 723.658C485.996 724.558 518.535 734.203 547.237 722.995C552.565 720.914 550.611 713.101 544.844 714.317C518.16 719.943 492.085 716.266 465.257 713.974C451.504 712.799 438.216 712.383 424.482 713.848C411.073 715.277 398.417 719.366 385.405 722.685C335.677 735.369 282.142 731.801 234.89 711.411C212.16 701.602 189.57 688.189 174.107 668.43C159.5 649.766 152.477 625.651 159.291 602.513C166.233 578.94 184.306 560.688 204.637 547.861C227.192 533.631 252.744 523.931 278.198 516.308C307.966 507.394 338.031 502.947 368.898 500.265C382.238 499.106 398.693 501.385 410.474 493.718C420.836 486.974 425.128 471.903 416.081 462.371C411.04 457.06 401.201 464.21 405.7 470.381L405.705 470.385Z" fill="#171717"/>
</g>
</g>
<defs>
<linearGradient id="paint0_linear_510_1398" x1="780.681" y1="342.094" x2="780.625" y2="396.119" gradientUnits="userSpaceOnUse">
<stop stop-color="#B7B7B7"/>
<stop offset="1" stop-color="#6F6F6F"/>
</linearGradient>
<linearGradient id="paint1_linear_510_1398" x1="712.865" y1="381.098" x2="711.956" y2="683.272" gradientUnits="userSpaceOnUse">
<stop stop-color="#B7B7B7"/>
<stop offset="1" stop-color="#6F6F6F"/>
</linearGradient>
<linearGradient id="paint2_linear_510_1398" x1="589.115" y1="480.359" x2="588.893" y2="580.496" gradientUnits="userSpaceOnUse">
<stop stop-color="#B7B7B7"/>
<stop offset="1" stop-color="#6F6F6F"/>
</linearGradient>
<linearGradient id="paint3_linear_510_1398" x1="363.873" y1="457.414" x2="363.396" y2="744.052" gradientUnits="userSpaceOnUse">
<stop stop-color="#B7B7B7"/>
<stop offset="1" stop-color="#6F6F6F"/>
</linearGradient>
<linearGradient id="paint4_linear_510_1398" x1="401.894" y1="614.316" x2="401.4" y2="744.624" gradientUnits="userSpaceOnUse">
<stop stop-color="#B7B7B7"/>
<stop offset="1" stop-color="#6F6F6F"/>
</linearGradient>
<clipPath id="clip0_510_1398">
<rect width="884" height="711" fill="white" transform="translate(38 125)"/>
</clipPath>
</defs>
</svg>
